<svg id="bbe9e450-7b30-4f29-a5cd-c39e59ee7756" data-name="Layer 1" xmlns="http://www.w3.org/2000/svg" width="865.76" height="682.89" viewBox="0 0 865.76 682.89"><path d="M562,434.91a31.23,31.23,0,0,0-2.51,5.29c-1.12,3.07-2.24,11.14-2.79,15.31s.84,10.86,3.34,13.92,4.73,2.79,5.85,1.67-3.34-4.73-3.61-7.8a12.11,12.11,0,0,1,1.39-7.46c1.12-1.67,4.16-1.73,4.73.29s-2.49,7.25,1.12,9.47,3.61-.28,3.61-1.4a81.2,81.2,0,0,1,1.4-9.19c.55-2.49-1.12-14.19-1.12-14.19Z" fill="#f9b499"/><rect x="233.87" y="546.48" width="82.15" height="7.62" fill="#9abadf" opacity="0.3"/><rect x="233.87" y="563.64" width="82.15" height="7.62" fill="#9abadf" opacity="0.3"/><rect x="233.87" y="532.44" width="82.15" height="7.62" fill="#9abadf" opacity="0.3"/><rect x="233.87" y="504.36" width="26.58" height="7.62" fill="#9abadf" opacity="0.3"/><rect x="233.87" y="518.4" width="26.58" height="7.62" fill="#9abadf" opacity="0.3"/><rect x="138.19" y="442.59" width="45.42" height="7.08" fill="#9abadf" opacity="0.3"/><rect x="138.19" y="456.82" width="83.6" height="7.08" fill="#9abadf" opacity="0.3"/><rect x="138.19" y="471.49" width="57.02" height="7.08" fill="#9abadf" opacity="0.3"/><rect x="233.87" y="456.82" width="31.48" height="7.08" fill="#9abadf" opacity="0.3"/><rect x="191.82" y="442.16" width="29.96" height="7.08" fill="#9abadf" opacity="0.3"/><rect x="230.48" y="442.16" width="29.96" height="7.08" fill="#9abadf" opacity="0.3"/><g opacity="0.3"><rect x="218.71" y="353.03" width="83.56" height="6.37" fill="#9abadf"/><rect x="218.71" y="367.94" width="83.56" height="6.37" fill="#9abadf"/><rect x="218.71" y="382.86" width="83.56" height="6.37" fill="#9abadf"/><rect x="218.71" y="397.77" width="83.56" height="6.37" fill="#9abadf"/><rect x="218.71" y="412.69" width="83.56" height="6.37" fill="#9abadf"/></g><path d="M241.5,143.92H248a0,0,0,0,1,0,0v57.41a0,0,0,0,1,0,0H241.5a1.64,1.64,0,0,1-1.64-1.64V145.56A1.64,1.64,0,0,1,241.5,143.92Z" fill="#677977"/><path d="M241.5,210.67H248a0,0,0,0,1,0,0v57.41a0,0,0,0,1,0,0H241.5a1.64,1.64,0,0,1-1.64-1.64V212.31a1.64,1.64,0,0,1,1.64-1.64Z" fill="#677977"/><path d="M509.67,143.92h6.53a0,0,0,0,1,0,0v57.41a0,0,0,0,1,0,0h-6.53a1.64,1.64,0,0,1-1.64-1.64V145.56A1.64,1.64,0,0,1,509.67,143.92Z" transform="translate(1024.23 345.26) rotate(180)" fill="#677977"/><rect x="245.46" y="28.82" width="265.14" height="510.7" rx="23.79" fill="#677977"/><rect x="245.46" y="104.01" width="265.14" height="359.89" fill="#ccc"/><rect x="265.35" y="120.7" width="30.28" height="4.09" fill="#fff"/><rect x="265.35" y="130.11" width="30.28" height="4.09" fill="#fff"/><rect x="265.35" y="139.52" width="30.28" height="4.09" fill="#fff"/><rect x="315.27" y="122.74" width="108.84" height="16.78" fill="#fff"/><rect x="245.46" y="158.34" width="265.14" height="56.47" opacity="0.2"/><rect x="283.76" y="170.21" width="185.36" height="29.46" rx="4.51" fill="#fff"/><path d="M444.67,190.47a7.06,7.06,0,1,1,7.06-7.06A7.06,7.06,0,0,1,444.67,190.47Zm0-10.85a3.79,3.79,0,1,0,3.79,3.79A3.79,3.79,0,0,0,444.67,179.62Z" fill="#677977"/><path d="M453.76,192.3a1.58,1.58,0,0,1-1-.32l-5.05-3.69a1.63,1.63,0,1,1,1.93-2.63l5,3.69a1.63,1.63,0,0,1-1,3Z" fill="#677977"/><rect x="265.35" y="239.38" width="64.98" height="64.98" fill="#fff" opacity="0.2"/><rect x="347.22" y="248.71" width="94.29" height="7.94" fill="#fff" opacity="0.2"/><rect x="347.22" y="264.12" width="94.29" height="7.94" fill="#fff" opacity="0.2"/><rect x="347.22" y="279.52" width="119.5" height="7.94" fill="#fff" opacity="0.2"/><rect x="265.35" y="321.07" width="64.98" height="64.98" fill="#fff" opacity="0.2"/><rect x="347.22" y="330.4" width="94.29" height="7.94" fill="#fff" opacity="0.2"/><rect x="347.22" y="345.81" width="94.29" height="7.94" fill="#fff" opacity="0.2"/><rect x="347.22" y="361.21" width="119.5" height="7.94" fill="#fff" opacity="0.2"/><rect x="265.35" y="405.55" width="64.98" height="58.35" fill="#fff" opacity="0.2"/><rect x="347.22" y="414.89" width="94.29" height="7.94" fill="#fff" opacity="0.2"/><rect x="347.22" y="430.29" width="94.29" height="7.94" fill="#fff" opacity="0.2"/><rect x="347.22" y="445.7" width="119.5" height="7.94" fill="#fff" opacity="0.2"/><circle cx="378.03" cy="498.45" r="19.96" fill="#fff"/><circle cx="378.03" cy="498.45" r="13.54" fill="#677977"/><rect x="449.06" y="84.84" width="387.58" height="62.35" rx="3.1" fill="#d1d3d4"/><path d="M765.46,84.84h68.08a3.1,3.1,0,0,1,3.1,3.1v56.15a3.1,3.1,0,0,1-3.1,3.1H765.46a0,0,0,0,1,0,0V84.84A0,0,0,0,1,765.46,84.84Z" opacity="0.2"/><polygon points="568.26 177.99 559.84 107.66 627.67 122.74 610.34 139.52 636.58 168.06 619.25 172.63 610.84 191.07 585.09 162.12 568.26 177.99" fill="#bcbec0"/><rect x="479.63" y="110.21" width="52.48" height="11.62" fill="#fff"/><rect x="45.07" y="28.82" width="154.37" height="168.73" fill="#bcbec0"/><rect x="76.59" y="106.69" width="91.79" height="16.06" fill="#fff"/><rect x="78.46" y="93.27" width="25.1" height="5.13" opacity="0.2"/><rect x="78.46" y="133.27" width="44.03" height="6.25" opacity="0.2"/><rect x="76.59" y="148.94" width="91.79" height="16.06" fill="#fff"/><rect x="45.07" y="28.82" width="154.37" height="29.45" opacity="0.2"/><circle cx="122.25" cy="57.33" r="17.74" fill="#fff"/><circle cx="122.25" cy="57.33" r="13.99" fill="#bcbec0"/><path d="M128.4,55.7h-1.05V53.6a2.44,2.44,0,0,0-2.44-2.44h-4.78a2.44,2.44,0,0,0-2.44,2.44v2.1h-1a.48.48,0,0,0-.48.48v8a.48.48,0,0,0,.48.48H128.4a.48.48,0,0,0,.48-.48v-8A.48.48,0,0,0,128.4,55.7Zm-9.89-2.1A1.62,1.62,0,0,1,120.13,52h4.78a1.63,1.63,0,0,1,1.63,1.63v2.1h-8Z" opacity="0.2"/><path d="M124,59.77a1.45,1.45,0,1,0-2.89,0,1.38,1.38,0,0,0,1,1.25v1.43h.93V61A1.38,1.38,0,0,0,124,59.77Z" fill="#fff"/><rect x="29.12" y="273.83" width="178.24" height="130.71" fill="#d1d3d4"/><rect x="29.12" y="381.01" width="178.24" height="23.53" fill="#bcbec0"/><circle cx="118.24" cy="332.44" r="27.42" fill="#fff"/><polygon points="112.3 341.04 112.3 323.21 129.01 332.13 112.3 341.04" fill="#bcbec0"/><polygon points="38.31 388.48 38.31 396.41 44.15 392.77 38.31 388.48" fill="#fff"/><rect x="49.3" y="391.56" width="129.99" height="2.6" fill="#fff"/><rect x="49.3" y="391.56" width="46.01" height="2.6" fill="#bcbec0"/><rect x="179.29" y="255.67" width="49.35" height="49.35" fill="#bcbec0"/><rect x="139.64" y="504.36" width="82.15" height="7.62" fill="#9abadf" opacity="0.3"/><rect x="139.64" y="518.4" width="82.15" height="7.62" fill="#9abadf" opacity="0.3"/><rect x="139.64" y="532.44" width="82.15" height="7.62" fill="#9abadf" opacity="0.3"/><rect x="139.64" y="546.48" width="82.15" height="7.62" fill="#9abadf" opacity="0.3"/><rect x="139.64" y="563.64" width="82.15" height="7.62" fill="#9abadf" opacity="0.3"/><path d="M579.81,429.68s-4.18,14.18-6.68,13.08-13.91-5.85-13.09-7.23,5.3-13.09,5.3-13.09Z" fill="#9abadf"/><path d="M579.81,429.68s-4.18,14.18-6.68,13.08-13.91-5.85-13.09-7.23,5.3-13.09,5.3-13.09Z" fill="#fff" opacity="0.2"/><path d="M605.7,307.23s-1.49,4.84-4.47,11.93-3.73,38.78-3.36,44,3.73,18.28,3,25.74-10.45,32.44-18.28,39.9-13.8-.37-17.15-3-1.87-11.94,2.24-17.53,11.93-33.57,11.93-40.65,4.1-38,7.08-50S599,305,599,305C604.21,304.24,605.7,307.23,605.7,307.23Z" fill="#9abadf"/><path d="M611.36,278.79s0,2.76-.24,8-1.78,13.56-3.52,14.3-12.32,4-15.54,11.54-9.22,21.06-6,36.86,10.28,26.83,8.77,33.1-10,17.17-13.34,33.57c-1.77,8.66-.4,26.69,2.3,46.17s12.16,53.88,14.92,64.41-1.52,19.08-.76,35.62-.05,19.05,2.52,29.84,9.51,26.07,10,29.59a46.14,46.14,0,0,1,.51,9.54c-.25,1.74-6,6.77-10.53,13S587.21,655.92,586,659.94s9.52,3.49,17.8,2,6.26-4,13-5.26,13-.48,14.54-4.25-1.51-39.64-2.5-50.17-1.75-48.9-1.75-48.9,2.91,12,3.91,19.5,5,43.63,5,47.39.75,12.53.75,18S634,658.37,634,661.62s8.36,5,13,5.27,10.46-2.49,9-9-7-19.06-6.27-23.07,12.85-46.14,12.28-61.94-5.27-22.58-8-31.61-.5-15.06,2-24.57,21.57-68.94,18.3-89.5-22.08-41.11-22.82-48.39,13.29-47.39,13.29-54.41.76-12.3-7.26-16.06-18.56-5-21.32-8.77-.25-22.82-.25-22.82Z" fill="#677977"/><path d="M647,667c-4.77-.25-13.05-2-13.05-5.26s2.76-17.81,2.76-23.33-.74-14.29-.74-18c0-.88-.23-3.54-.57-7.16a30.57,30.57,0,0,0,19.63.77c-2.58,10.53-5,19.17-5.27,20.89-.76,4,4.78,16.54,6.27,23.07S651.74,667.22,647,667ZM586,659.89c-1.25,4,9.52,3.49,17.79,2s6.27-4,13-5.27,13-.49,14.55-4.25c1.16-2.91-.36-25-1.59-39.72A26.67,26.67,0,0,1,608,614a55.31,55.31,0,0,1,2.64,7.82,45.36,45.36,0,0,1,.5,9.53c-.25,1.75-6,6.77-10.53,13S587.28,655.88,586,659.89Z" fill="#f9b499"/><path d="M603.82,661.85c8.28-1.5,6.27-4,13-5.27s13-.49,14.55-4.25c.53-1.27.5-6.62.19-13.43-.54.3-1.25.63-2,1A19.11,19.11,0,0,1,619.13,641a51.51,51.51,0,0,1-1.87-5.22c-.74-2.63-6.16-4.48-6.16-4.48-.25,1.75-6,6.77-10.53,13S587.28,655.88,586,659.89,595.55,663.34,603.82,661.85Z" fill="#9abadf"/><path d="M603.82,661.89c8.28-1.49,6.27-4,13-5.27s13-.49,14.55-4.25a8.61,8.61,0,0,0,.34-2.31,69.41,69.41,0,0,0-16.59,3.76c-6.55,2.7-17.21,8.1-29.15,6.09C584.81,663.9,595.55,663.38,603.82,661.89Z" fill="#677977"/><path d="M636.76,638.32c0,5.52-2.76,20.08-2.76,23.33s8.37,5,13,5.27,10.45-2.51,9-9c-1.31-5.67-5.63-15.87-6.26-21.08a13.17,13.17,0,0,0-5.61-1,13.43,13.43,0,0,0-7.46,1.76Z" fill="#9abadf"/><path d="M646.92,666.93c4.68.26,10.44-2.5,9-9-.13-.58-.31-1.23-.49-1.88h0s0,7.89-10.44,7.46c-6.14-.29-9.12-3.43-10.61-6-.24,1.85-.42,3.33-.42,4.13C633.91,664.9,642.24,666.68,646.92,666.93Z" fill="#677977"/><path d="M581.42,416.12a56.4,56.4,0,0,0-.81,10.86c7.09,5.28,20.37,11.81,42.2,11.14A176.36,176.36,0,0,0,674.46,429c-.06-.62-.12-1.22-.21-1.79-3.27-20.55-22.08-41.11-22.83-48.39s13.3-47.39,13.3-54.41.76-12.3-7.27-16.06-18.56-5-21.32-8.77-.25-22.82-.25-22.82l-24.58,2s0,2.76-.24,8-1.78,13.56-3.52,14.31-12.32,4-15.54,11.53-9.22,21.06-6,36.86,10.26,26.84,8.77,33.1S584.82,399.71,581.42,416.12Z" fill="#9abadf"/><path d="M601,304a33.89,33.89,0,0,0,18.42,9.11c18.54,3.26,27-6.81,28.19-8.31-5.13-1.56-9.71-2.93-11.38-5.22-2.76-3.77-.25-22.82-.25-22.82l-24.59,2s0,2.76-.24,8-1.76,13.55-3.52,14.31A53.51,53.51,0,0,0,601,304Z" fill="#f9b499"/><path d="M610.76,290.65c10-2.41,17.44-10.22,17.44-10.22l-1.34-3-15.52,1.27s0,2.76-.24,8C611,287.92,610.92,289.24,610.76,290.65Z" fill="#f7ab94"/><path d="M625.48,268.05c-.83-5.56-5.47-32.83-8.36-36.8s-10.07-5.17-11.85-4.26-6,5.59-6,5.59-4.47-4.77-1.89-14.92,7.43-7.75,13.93-11.32,29.31-6.28,44.75,6.73,18.83,53.45,0,65.83-25.44,7.17-25.44,7.17l-.36-5.8A41.05,41.05,0,0,1,625.48,268.05Z" fill="#677977"/><path d="M630.29,280.27s-8.13,1.87-12.61,2.69a43.33,43.33,0,0,1-16.27-1.18,13.27,13.27,0,0,1-8.56-8.49c-1.35-4.21-1.24-20.48,3.13-34.94s12.19-18.69,12.19-18.69C626.48,219.22,630.29,280.27,630.29,280.27Z" fill="#f9b499"/><path d="M549.6,318.09l-3.91-35.34c0-.1,0-.2,0-.3a2,2,0,0,1,2.09-2l13.54.3a2,2,0,0,1,2,1.82l3.92,35.34a2,2,0,0,1,0,.25,2,2,0,0,1-2.1,2l-13.53-.29A2.06,2.06,0,0,1,549.6,318.09Z" fill="#677977"/><path d="M582,326.62l-7.79,9.8s-15-9.3-18.05-11.29-5.27-6.52-7.77-8.78-3-6-1.25-6.51,2,1.26,4.26,2.76a94.19,94.19,0,0,0,9.28,4.47s-7.77-6.52-10.53-7.77-5-5.28-2.27-5.52,10,4,11,4.77,5,1.29,5,0-3-3-5.26-4.26-9-5-10.28-6.52.25-2,4.26-1.49,15.55,6.52,15.55,6.52,2.27.52,4.26.76,3.26,2.49,3.76,5.75S580,325.62,580,325.62Z" fill="#f9b499"/><polygon points="589.79 331.14 580.26 344.43 568.96 337.66 581 323.11 589.79 331.14" fill="#9abadf"/><polygon points="589.79 331.14 580.26 344.43 568.96 337.66 581 323.11 589.79 331.14" fill="#fff" opacity="0.2"/><path d="M648,321.31c-1.76,1.5-13.54,36.36-13.54,36.36S598.56,329,594.8,329.33s-8.77,4.78-8.77,4.78-7.28,9.26-7,12,4.27,6.53,4.27,6.53c4.5,4,51.13,33.33,53.4,34.59s9.26,3.23,11.79.51S670,338.4,669.77,325.11s-10.53-15.54-10.53-15.54" fill="#9abadf"/><path d="M648,321.31c-1.76,1.5-13.54,36.36-13.54,36.36S598.56,329,594.8,329.33s-8.77,4.78-8.77,4.78-7.28,9.26-7,12,4.27,6.53,4.27,6.53c4.5,4,51.13,33.33,53.4,34.59s9.26,3.23,11.79.51S670,338.4,669.77,325.11s-10.53-15.54-10.53-15.54C653.63,309.1,648,321.31,648,321.31Z" opacity="0.2"/><polygon points="228.06 255.67 228.64 255.67 228.64 256.25 228.06 255.67" fill="#d1d3d4"/><polygon points="179.82 305.02 179.29 304.44 228.06 255.67 228.64 256.25 179.82 305.02" fill="#d1d3d4"/><polygon points="179.29 305.02 179.29 304.44 179.82 305.02 179.29 305.02" fill="#d1d3d4"/><polygon points="228.64 304.44 228.64 305.02 228.06 305.02 228.64 304.44" fill="#d1d3d4"/><polygon points="179.29 256.2 179.87 255.67 228.64 304.44 228.06 305.02 179.29 256.2" fill="#d1d3d4"/><polygon points="179.29 255.67 179.87 255.67 179.29 256.2 179.29 255.67" fill="#d1d3d4"/></svg>