<svg xmlns="http://www.w3.org/2000/svg" viewBox="0 0 865.76 682.89"><path d="M340.44,368.63s-1.39,60.7,43.09,50.51C383.53,419.14,377,373.26,340.44,368.63Z" fill="#4796f2"/><g opacity="0.2"><path d="M340.44,368.63s-1.39,60.7,43.09,50.51C383.53,419.14,377,373.26,340.44,368.63Z"/></g><path d="M344.49,369.25s-22.39,5.33-24.8,13.71l43.15,22,15.32-3.69S368.46,373.12,344.49,369.25Z" fill="#ef947f"/><path d="M651.82,452H468.27s-5-15.62-8.51-31.27H448.17s-3.47-33.6-6.25-45.64A44.38,44.38,0,0,1,416,402l-32.44,17.15s-7.41-46.8-43.09-50.51l36.12-16.06a16.64,16.64,0,0,0,8.24-8l42.7-88.27a23.48,23.48,0,0,1,8.27-9.43l21.72-14.27L531,226.05l42.47,11s26.88,5.1,29.66,54.68v19.21S617.07,398.28,651.82,452Z" fill="#4796f2"/><path d="M462.3,219.56s-7.41,13.3-10.65,26.74c0,0-3.25,10.66-11.12,15.29,0,0,9.26,2.78,19-7.41l10.66,16.68.93-4.17S463.69,247.5,462.3,219.56Z" fill="#171c80"/><path d="M484.08,270.14s4-7.29,4.3-11.39c0,0,13.77-10.89,18.18-5.18,0,0-13.67,19.72-22.48,23.14Z" fill="#f6cc5d"/><path d="M454.23,258.6A32.17,32.17,0,0,0,467.4,274v-3.85s-.23-.44.87-2.28l-8.75-13.68A33.27,33.27,0,0,1,454.23,258.6Z" fill="#f6cc5d"/><path d="M470.86,283.37s-16.56,64.24-9,113.06l33.48-1.36S484.6,359,483.18,282.23l-5.28-5.52Z" fill="#f6cc5d"/><g opacity="0.2"><path d="M428.94,297.73l13,77.39A46.12,46.12,0,0,1,416,402l-32.44,17.15a71.41,71.41,0,0,0-4.62-16l34.18-26.41a28.24,28.24,0,0,0,10.87-20Z"/></g><path d="M455.82,396.89l82.68,1.86a10.77,10.77,0,0,0,10.89-12.47c-3.72-23.37-10.86-72.59-8.78-94.11,0,0-7.11,28.9-6.53,91.05a4.42,4.42,0,0,1-3.87,4.43Z" fill="#4796f2"/><g opacity="0.2"><path d="M455.82,396.89l82.68,1.86a10.77,10.77,0,0,0,10.89-12.47c-3.72-23.37-10.86-72.59-8.78-94.11,0,0-7.11,28.9-6.53,91.05a4.42,4.42,0,0,1-3.87,4.43Z"/></g><g opacity="0.2"><path d="M651.82,452H606.91l-3.74-141.11S617.07,398.28,651.82,452Z"/></g><path d="M513.42,398.76h155.1a4.15,4.15,0,0,1,4.15,4.15v19.2a4.15,4.15,0,0,1-4.15,4.15H513.27v-3.53h69.52a5.56,5.56,0,0,0,5.55-5.55v-8.71a5.55,5.55,0,0,0-5.55-5.55H513.27Z" fill="#171c80"/><g opacity="0.2"><rect x="656.45" y="402.92" width="8.8" height="19.92" rx="4.4"/></g><path d="M516.05,402.92h62.32a10,10,0,0,1,10,10v0a10,10,0,0,1-10,10H516.05a0,0,0,0,1,0,0V402.92A0,0,0,0,1,516.05,402.92Z" fill="#e1e1e5"/><g opacity="0.2"><path d="M580.35,408.24H516.29a.24.24,0,1,1,0-.47h64.06a.24.24,0,0,1,0,.47Z"/></g><g opacity="0.2"><path d="M549.88,411.48H516.29a.23.23,0,1,1,0-.46h33.59a.23.23,0,0,1,0,.46Z"/></g><g opacity="0.2"><path d="M566.56,416.11H516.29a.23.23,0,1,1,0-.46h50.27a.23.23,0,0,1,0,.46Z"/></g><g opacity="0.2"><path d="M577.68,419.36H516.29a.24.24,0,1,1,0-.47h61.39a.24.24,0,0,1,0,.47Z"/></g><path d="M527.79,426.09h155.1A4,4,0,0,1,687,430v17.95a4,4,0,0,1-4.15,3.88H527.64v-3.29h69.51a5.38,5.38,0,0,0,5.55-5.19v-8.14a5.37,5.37,0,0,0-5.55-5.19H527.64Z" fill="#f6cc5d"/><g opacity="0.2"><rect x="670.82" y="429.99" width="8.8" height="18.63" rx="4.4" fill="#fff"/></g><path d="M530.42,430h63a9.31,9.31,0,0,1,9.31,9.31v0a9.31,9.31,0,0,1-9.31,9.31h-63a0,0,0,0,1,0,0V430a0,0,0,0,1,0,0Z" fill="#e1e1e5"/><g opacity="0.2"><path d="M594.48,435H530.42a.23.23,0,1,1,0-.46h64.06a.23.23,0,1,1,0,.46Z"/></g><g opacity="0.2"><path d="M564,438H530.42a.23.23,0,0,1-.23-.23.23.23,0,0,1,.23-.23H564a.23.23,0,0,1,.23.23A.23.23,0,0,1,564,438Z"/></g><g opacity="0.2"><path d="M580.69,442.34H530.42a.24.24,0,0,1,0-.47h50.27a.24.24,0,1,1,0,.47Z"/></g><g opacity="0.2"><path d="M591.81,445.37H530.42a.23.23,0,1,1,0-.46h61.39a.23.23,0,1,1,0,.46Z"/></g><path d="M327.33,378.82s-14.46,1.16-18.11,29.44l4.64,15.1,3.49-7.49a.51.51,0,0,1,1,.18l1.17,17.28a3,3,0,0,0,3,2.84h0a3,3,0,0,0,3-2.94l.4-12.36a2.42,2.42,0,0,1,3.1-2.24h0a2.41,2.41,0,0,1,1.74,2.32V442.3h7V416.7a2.67,2.67,0,0,1,2.67-2.67h0a2.67,2.67,0,0,1,2.67,2.67v18.17a2.9,2.9,0,0,0,2.9,2.9h0a2.89,2.89,0,0,0,2.86-2.42c1-5.8,3-20.55.84-28.26,0,0,8.41,9.74,17.14,11.75a2.84,2.84,0,0,0,3.49-3.07c-.24-1.91-1.75-4.82-6.27-9.15a134,134,0,0,1-8.34-12.51S349,375.35,327.33,378.82Z" fill="#f4a892"/><rect x="507.71" y="459.45" width="309.07" height="137.16" fill="#babacc"/><rect x="52.69" y="459.45" width="455.03" height="137.16" fill="#c8c8dc"/><path d="M462.3,219.56s1.39,29.06,8.81,47.13h6.79s6.18-12.51,20.08-25l13-11.12s7.87-7.15,0-14c0,0-3.71-2.44-4.4-12.52l-2.09-17.7-6.81-.93Z" fill="#f4a892"/><path d="M462.3,219.56l1.43,15.26L491,202S473,218.77,462.3,219.56Z" fill="#ef947f"/><path d="M420.14,137.87l7.52,59a27.05,27.05,0,0,0,27.9,23.71c12.18-.56,28.5-8.36,48.91-33.12,0,0-7.41-52.36-7-55.14s-15.75-20.39-15.75-20.39Z" fill="#f4a892"/><path d="M443.77,96.63c-17.61,7.42-23.63-8.17-23.63-8.17-9.27,11.75,0,19.46,0,19.46-3.25,1.55-19.74,4-19.74,4,.65,9.27,9.54,12.51,9.54,12.51-12,5.1-9.26,17.15-9.26,17.15C403,137,412.26,136,412.26,136c-5.1,20.85,10.95,25.92,10.95,25.92l-3.07-24.07c24.56,9.73,62.55-7.41,62.55-7.41s-2.39,28,11.55,35.8l16.35-10.21s-2.41-3.81,2.22-13.54c0,0,11.58-31-24.56-36.15,0,0-1-17.23-21-17.26A33.76,33.76,0,0,0,453,92.35Z" fill="#070e3f"/><ellipse cx="506.56" cy="171.93" rx="15.52" ry="16.45" fill="#f4a892"/><rect x="467.4" y="266.69" width="16.68" height="16.68" rx="7.46" fill="#f6cc5d"/><g opacity="0.2"><rect x="467.4" y="266.69" width="16.68" height="16.68" rx="7.46"/></g><path d="M477.9,266.69s22.47-19.16,28.08-13.85a2.8,2.8,0,0,1,.72,1.25c.79,2.81,5,15.94,15.38,16.77,0,0-3.25-9.27,1.39-17.61,0,0,16.22-27.8,3.24-30.58,0,0-4.17-.46-8.8-6.49,0,0-6.45-9-10.64-7,0,0,.68,5,3.69,7.41,0,0,5.24,4.29,2.29,10.6a12.07,12.07,0,0,1-3.58,4.38C504.53,235.53,485.36,251.11,477.9,266.69Z" fill="#171c80"/><path d="M468.27,452l-39.33-1.85s-16-1.16-22-9c0,0-32.71-.17-42.42,1,0,0-12.79,1-2.91-12.11a86.78,86.78,0,0,1,17.31-16s-18.31,3.41-31.26,9.81a2.17,2.17,0,0,1-2.75-.69h0a2.19,2.19,0,0,1,.46-3c7.58-5.77,39.51-27.53,67.41-8.88,0,0,11.18,7.49,20.24,9.86a10.13,10.13,0,0,0,2.85.3l23.75-.7S465.43,445.55,468.27,452Z" fill="#f4a892"/><path d="M378.91,414.53a.49.49,0,0,1-.48-.36.5.5,0,0,1,.34-.62l15.74-4.62a.5.5,0,0,1,.62.33.49.49,0,0,1-.34.62l-15.74,4.63Z" fill="#ef947f"/><path d="M357.86,438.27a.59.59,0,0,1-.23,0,.51.51,0,0,1-.21-.68c.26-.48,6.54-12,33.13-18.89a.5.5,0,1,1,.25,1c-26.16,6.82-32.43,18.27-32.49,18.39A.5.5,0,0,1,357.86,438.27Z" fill="#ef947f"/><path d="M359.06,441.25a.52.52,0,0,1-.46-.29.5.5,0,0,1,.25-.66c.89-.41,22-10.09,34-9.15a.5.5,0,0,1,.46.53.49.49,0,0,1-.54.46c-11.8-.88-33.28,9-33.49,9.07A.52.52,0,0,1,359.06,441.25Z" fill="#ef947f"/><path d="M305.22,442.3H446.09a9.73,9.73,0,0,1,9.73,9.73v0a0,0,0,0,1,0,0H305.22a0,0,0,0,1,0,0V442.3A0,0,0,0,1,305.22,442.3Z" fill="#f6cc5d"/><path d="M312.64,452H111.11a11.91,11.91,0,0,1-11.68-9.58l-24-119.75a6.15,6.15,0,0,1,6-7.36h184.4a4.33,4.33,0,0,1,4.13,3Z" fill="#f6cc5d"/><path d="M265.91,315.34h10.45a5.83,5.83,0,0,1,5.57,4.11L319.69,442.3H309.54L270,318.36S269.7,315.34,265.91,315.34Z" fill="#f6cc5d"/><g opacity="0.2"><path d="M265.91,315.34h10.45a5.83,5.83,0,0,1,5.57,4.11L319.69,442.3H309.54L270,318.36S269.7,315.34,265.91,315.34Z"/></g><path d="M47.31,452h769a14.36,14.36,0,0,1,14.36,14.36v0a0,0,0,0,1,0,0H35.08a0,0,0,0,1,0,0v-2.13A12.23,12.23,0,0,1,47.31,452Z" fill="#171c80"/><rect x="103.66" y="199.91" width="281.5" height="60.73" rx="30.36" fill="#4796f2"/><path d="M380,229.87a25.37,25.37,0,0,1-25.37,25.37H133.35a25.37,25.37,0,1,1,0-50.74H354.66A25.37,25.37,0,0,1,380,229.87Z" fill="#fff"/><path d="M158.72,204.5v50.74H133.35a25.37,25.37,0,1,1,0-50.74Z" fill="#f6cc5d"/><path d="M145.73,238.23l-5-5.67a10.28,10.28,0,1,0-3.34,3.67L142,241.5a2.48,2.48,0,1,0,3.74-3.27Zm-14-4a6.48,6.48,0,1,1,6.47-6.47A6.48,6.48,0,0,1,131.73,234.18Z" fill="#fff"/><path d="M177,247.6a1,1,0,0,1-1-1V213.35a1,1,0,0,1,2,0V246.6A1,1,0,0,1,177,247.6Z" fill="#171c80"/><path d="M181.93,214.35h-9.77a1,1,0,0,1,0-2h9.77a1,1,0,0,1,0,2Z" fill="#171c80"/><path d="M181.93,247.82h-9.77a1,1,0,0,1,0-2h9.77a1,1,0,0,1,0,2Z" fill="#171c80"/><path d="M358.35,144H295.91a3.33,3.33,0,0,0-3.33,3.33V178.5a3.33,3.33,0,0,0,3.33,3.33h23.32a1.38,1.38,0,0,1,1.14.6l5,7.34a2.11,2.11,0,0,0,3.5,0l4.84-7.3a1.37,1.37,0,0,1,1.15-.62h23.5a3.33,3.33,0,0,0,3.32-3.33V147.37A3.33,3.33,0,0,0,358.35,144Z" fill="#f6cc5d"/><path d="M269.28,86.28H206.84a3.33,3.33,0,0,0-3.32,3.33v31.13a3.33,3.33,0,0,0,3.32,3.33h23.32a1.4,1.4,0,0,1,1.15.61l5,7.33a2.11,2.11,0,0,0,3.5,0l4.83-7.3a1.38,1.38,0,0,1,1.16-.62h23.49a3.33,3.33,0,0,0,3.33-3.33V89.61A3.33,3.33,0,0,0,269.28,86.28Z" fill="#4796f2"/><path d="M175.9,127.85H113.46a3.33,3.33,0,0,0-3.32,3.33v31.13a3.32,3.32,0,0,0,3.32,3.32h23.32a1.4,1.4,0,0,1,1.15.61l5,7.33a2.12,2.12,0,0,0,3.51,0l4.83-7.3a1.41,1.41,0,0,1,1.16-.62H175.9a3.33,3.33,0,0,0,3.33-3.32V131.18A3.33,3.33,0,0,0,175.9,127.85Z" fill="#f6cc5d"/><path d="M260.33,173.73H207.16a3.11,3.11,0,0,0-2.83,3.33v31.13a3.11,3.11,0,0,0,2.83,3.32H227a1.14,1.14,0,0,1,1,.61l4.25,7.34a1.66,1.66,0,0,0,3,0l4.12-7.3a1.16,1.16,0,0,1,1-.62h20a3.11,3.11,0,0,0,2.83-3.32V177.06A3.11,3.11,0,0,0,260.33,173.73Z" fill="#171c80"/><path d="M200.29,300.85h45.86c1.35,0,2.44-1.57,2.44-3.5V264.6c0-1.94-1.09-3.5-2.44-3.5H229a1,1,0,0,1-.84-.64l-3.66-7.72a1.34,1.34,0,0,0-2.58,0l-3.55,7.68a1,1,0,0,1-.84.66H200.29c-1.35,0-2.44,1.56-2.44,3.5v32.75C197.85,299.28,198.94,300.85,200.29,300.85Z" fill="#171c80"/><path d="M285.43,317.58h63.42a3.33,3.33,0,0,0,3.38-3.27V283.72a3.33,3.33,0,0,0-3.38-3.27H325.17a1.43,1.43,0,0,1-1.17-.59l-5.06-7.21a2.18,2.18,0,0,0-3.56,0l-4.91,7.17a1.42,1.42,0,0,1-1.18.61H285.43a3.33,3.33,0,0,0-3.37,3.27v30.59A3.32,3.32,0,0,0,285.43,317.58Z" fill="#4796f2"/><path d="M140.9,257.93V282.1a2.94,2.94,0,0,0,4.76,2.31l33.57-26.48Z" fill="#4796f2"/><path d="M227.23,103.66a5.1,5.1,0,0,1-2.17,2.06,7.77,7.77,0,0,1-3.72.79h-3.06v7h-3.65V95.28h6.71a8.05,8.05,0,0,1,3.6.73,5.1,5.1,0,0,1,2.23,2,5.62,5.62,0,0,1,.75,2.9A5.69,5.69,0,0,1,227.23,103.66Zm-3.8-.8a2.53,2.53,0,0,0,.73-1.94c0-1.78-1-2.66-3-2.66h-2.9v5.3h2.9A3.14,3.14,0,0,0,223.43,102.86Z" fill="#fff"/><path d="M245.62,95.28V113.5H242v-7.75h-7.81v7.75H230.5V95.28h3.66v7.49H242V95.28Z" fill="#fff"/><path d="M261.82,103.66a5.07,5.07,0,0,1-2.16,2.06,7.82,7.82,0,0,1-3.72.79h-3.06v7h-3.65V95.28h6.71a8.05,8.05,0,0,1,3.6.73,5.1,5.1,0,0,1,2.23,2,5.85,5.85,0,0,1,.05,5.64Zm-3.79-.8a2.57,2.57,0,0,0,.73-1.94c0-1.78-1-2.66-3-2.66h-2.9v5.3h2.9A3.14,3.14,0,0,0,258,102.86Z" fill="#fff"/><path d="M126.28,140.49v10.17a4.31,4.31,0,0,1-1.22,3.29,4.52,4.52,0,0,1-3.28,1.18,4.68,4.68,0,0,1-3.36-1.21,4.39,4.39,0,0,1-1.27-3.36h2.9a2.36,2.36,0,0,0,.45,1.45,1.5,1.5,0,0,0,1.24.52,1.46,1.46,0,0,0,1.2-.5,2.06,2.06,0,0,0,.42-1.37V140.49Z" fill="#fff"/><path d="M138.56,152.22h-5.78l-.95,2.76h-3.05L134,140.47h3.38L142.58,155h-3.07Zm-.79-2.32-2.1-6.07-2.1,6.07Z" fill="#fff"/><path d="M157.56,140.49,152.24,155h-3.53l-5.32-14.49h3.12l4,11.52,4-11.52Z" fill="#fff"/><path d="M168.19,152.22h-5.78l-.95,2.76h-3.05l5.21-14.51H167L172.22,155h-3.08Zm-.79-2.32-2.1-6.07-2.1,6.07Z" fill="#fff"/><path d="M313.7,156.24v14.5h-2.91v-6.17h-6.21v6.17h-2.9v-14.5h2.9v6h6.21v-6Z" fill="#fff"/><path d="M326.43,156.24v2.35h-3.87v12.15h-2.9V158.59h-3.87v-2.35Z" fill="#fff"/><path d="M344.35,156.24v14.5h-2.91v-9.43l-3.88,9.43h-2.2l-3.91-9.43v9.43h-2.91v-14.5h3.31L336.46,167l4.61-10.78Z" fill="#fff"/><path d="M350.12,168.43h4.77v2.31h-7.68v-14.5h2.91Z" fill="#fff"/><path d="M214.36,188.83a6.83,6.83,0,0,1,2.64-2.64,7.92,7.92,0,0,1,8,.3,6.47,6.47,0,0,1,2.55,3.45h-3.34a3.5,3.5,0,0,0-1.4-1.56,4.18,4.18,0,0,0-2.09-.52,4.25,4.25,0,0,0-2.25.6,4,4,0,0,0-1.54,1.67,6.07,6.07,0,0,0,0,5.05,4.07,4.07,0,0,0,1.54,1.69,4.34,4.34,0,0,0,2.25.59,4.08,4.08,0,0,0,2.09-.53,3.53,3.53,0,0,0,1.4-1.57h3.34a6.49,6.49,0,0,1-2.54,3.46,8,8,0,0,1-8,.29,6.88,6.88,0,0,1-2.64-2.63,7.46,7.46,0,0,1-1-3.82A7.55,7.55,0,0,1,214.36,188.83Z" fill="#fff"/><path d="M232.32,199.56a4.52,4.52,0,0,1-1.92-1.5,4,4,0,0,1-.73-2.3h3.12a2,2,0,0,0,.63,1.41,2.27,2.27,0,0,0,1.57.52,2.45,2.45,0,0,0,1.6-.49,1.62,1.62,0,0,0,.58-1.28,1.46,1.46,0,0,0-.4-1.06,2.85,2.85,0,0,0-1-.65,15.78,15.78,0,0,0-1.63-.53,18.21,18.21,0,0,1-2.3-.82,4,4,0,0,1-1.51-1.23,3.42,3.42,0,0,1-.64-2.19,3.91,3.91,0,0,1,.65-2.24,4.09,4.09,0,0,1,1.8-1.46,6.61,6.61,0,0,1,2.66-.51,5.77,5.77,0,0,1,3.65,1.09,4,4,0,0,1,1.54,3h-3.19a1.67,1.67,0,0,0-.64-1.24,2.41,2.41,0,0,0-1.57-.48,2,2,0,0,0-1.36.43,1.58,1.58,0,0,0-.5,1.27,1.27,1.27,0,0,0,.38,1,2.92,2.92,0,0,0,1,.63c.39.16.92.34,1.61.55a15.59,15.59,0,0,1,2.31.83,4.25,4.25,0,0,1,1.54,1.24,3.53,3.53,0,0,1,.64,2.18,4.09,4.09,0,0,1-.6,2.16,4.17,4.17,0,0,1-1.77,1.59,5.92,5.92,0,0,1-2.76.59A7,7,0,0,1,232.32,199.56Z" fill="#fff"/><path d="M245,199.56a4.55,4.55,0,0,1-1.93-1.5,3.91,3.91,0,0,1-.72-2.3h3.11a2,2,0,0,0,.64,1.41,2.26,2.26,0,0,0,1.56.52,2.45,2.45,0,0,0,1.6-.49,1.59,1.59,0,0,0,.58-1.28,1.49,1.49,0,0,0-.39-1.06,2.8,2.8,0,0,0-1-.65,14.3,14.3,0,0,0-1.63-.53,18,18,0,0,1-2.29-.82,4,4,0,0,1-1.52-1.23,3.48,3.48,0,0,1-.63-2.19,3.9,3.9,0,0,1,.64-2.24,4.06,4.06,0,0,1,1.81-1.46,6.54,6.54,0,0,1,2.66-.51,5.74,5.74,0,0,1,3.64,1.09,4,4,0,0,1,1.55,3h-3.2a1.69,1.69,0,0,0-.63-1.24,2.43,2.43,0,0,0-1.57-.48,2,2,0,0,0-1.36.43,1.59,1.59,0,0,0-.51,1.27,1.27,1.27,0,0,0,.39,1,2.82,2.82,0,0,0,.95.63c.38.16.92.34,1.61.55a15.41,15.41,0,0,1,2.3.83,4.17,4.17,0,0,1,1.54,1.24,3.47,3.47,0,0,1,.64,2.18,4.09,4.09,0,0,1-.6,2.16,4.2,4.2,0,0,1-1.76,1.59,6,6,0,0,1-2.76.59A7,7,0,0,1,245,199.56Z" fill="#fff"/><path d="M218.84,273.94v10.17a4.36,4.36,0,0,1-1.22,3.29,4.52,4.52,0,0,1-3.28,1.18,4.68,4.68,0,0,1-3.36-1.21,4.39,4.39,0,0,1-1.27-3.36h2.9a2.36,2.36,0,0,0,.45,1.45,1.5,1.5,0,0,0,1.24.52,1.46,1.46,0,0,0,1.2-.5,2.06,2.06,0,0,0,.42-1.37V273.94Z" fill="#fff"/><path d="M224.5,288.06a4.52,4.52,0,0,1-1.92-1.5,4,4,0,0,1-.73-2.3H225a2,2,0,0,0,.63,1.41,2.24,2.24,0,0,0,1.57.52,2.39,2.39,0,0,0,1.6-.49,1.57,1.57,0,0,0,.58-1.28,1.47,1.47,0,0,0-.39-1.05,2.87,2.87,0,0,0-1-.66c-.4-.16-.94-.33-1.63-.53a16.76,16.76,0,0,1-2.3-.82,4.1,4.1,0,0,1-1.51-1.22,3.52,3.52,0,0,1-.63-2.19,3.94,3.94,0,0,1,.64-2.25,4.13,4.13,0,0,1,1.81-1.46,6.52,6.52,0,0,1,2.65-.51,5.77,5.77,0,0,1,3.65,1.09,4,4,0,0,1,1.54,3H229a1.64,1.64,0,0,0-.64-1.23,2.33,2.33,0,0,0-1.56-.49,2,2,0,0,0-1.36.44,1.56,1.56,0,0,0-.51,1.26,1.3,1.3,0,0,0,.38,1,3.12,3.12,0,0,0,1,.62,16.86,16.86,0,0,0,1.61.55,16.63,16.63,0,0,1,2.3.83,4.1,4.1,0,0,1,1.54,1.25,3.45,3.45,0,0,1,.64,2.18,4.14,4.14,0,0,1-.6,2.16A4.3,4.3,0,0,1,230,288a6,6,0,0,1-2.76.59A7,7,0,0,1,224.5,288.06Z" fill="#fff"/><path d="M306.65,307.43l-3.14-4.88-2.84,4.88h-3.28l4.57-7.31-4.64-7.18h3.35l3.13,4.86,2.83-4.86h3.28l-4.55,7.28,4.63,7.21Z" fill="#fff"/><path d="M315.12,305.13h4.78v2.3h-7.69V292.94h2.91Z" fill="#fff"/><path d="M337.55,292.94v14.49h-2.91V298l-3.88,9.43h-2.21l-3.9-9.43v9.43h-2.91V292.94h3.31l4.6,10.77,4.61-10.77Z" fill="#fff"/></svg>