<?xml version="1.0" standalone="no"?>
<!DOCTYPE svg PUBLIC "-//W3C//DTD SVG 20010904//EN"
 "http://www.w3.org/TR/2001/REC-SVG-20010904/DTD/svg10.dtd">
<svg version="1.0" xmlns="http://www.w3.org/2000/svg"
 width="512.000000pt" height="512.000000pt" viewBox="0 0 512.000000 512.000000"
 preserveAspectRatio="xMidYMid meet">

<g transform="translate(0.000000,512.000000) scale(0.100000,-0.100000)"
fill="#000000" stroke="none">
<path d="M1968 5050 c-49 -51 -79 -95 -113 -162 -46 -94 -85 -224 -85 -284 0
-26 -8 -39 -42 -65 -49 -39 -115 -138 -124 -185 -4 -23 7 -86 35 -201 111
-456 131 -589 131 -866 l0 -217 -121 -203 c-390 -650 -850 -1272 -1263 -1706
-159 -166 -159 -166 29 -296 97 -67 265 -170 345 -210 47 -24 49 -26 38 -50
-18 -40 3 -70 87 -125 110 -71 329 -180 363 -180 53 0 88 61 62 110 -6 11 -68
49 -138 85 -70 35 -142 74 -160 85 l-32 20 53 72 c318 431 669 1041 973 1691
93 198 100 233 58 266 -30 24 -43 26 -77 10 -19 -8 -44 -53 -102 -178 -174
-372 -393 -787 -575 -1091 -95 -158 -339 -531 -383 -585 l-25 -30 -38 18
c-109 51 -397 233 -392 247 2 5 55 67 119 137 421 465 915 1152 1253 1741 l48
82 673 0 674 0 72 -122 c384 -652 842 -1282 1262 -1737 48 -52 87 -98 87 -102
0 -15 -201 -143 -372 -237 l-57 -32 -43 58 c-151 203 -386 583 -574 925 -105
191 -340 661 -405 810 -24 56 -42 83 -61 93 -37 19 -51 18 -83 -8 -24 -18 -27
-26 -22 -62 2 -23 50 -136 106 -256 289 -609 639 -1216 930 -1610 l70 -95 -22
-19 c-12 -10 -103 -58 -202 -107 -726 -355 -1496 -421 -2235 -191 -158 49
-191 51 -219 17 -24 -32 -26 -44 -9 -79 13 -30 61 -50 239 -101 305 -88 530
-119 869 -119 341 0 570 32 884 124 316 93 735 286 849 392 36 34 39 41 33 72
-8 40 -17 31 124 110 47 27 141 85 210 131 238 157 238 156 74 327 -405 425
-869 1050 -1254 1693 l-132 220 5 245 c3 176 9 272 22 343 14 76 15 103 7 123
-24 50 -97 57 -127 10 -8 -12 -25 -87 -37 -164 l-22 -142 -641 0 -641 0 -13
93 c-15 115 -69 382 -120 590 l-38 158 28 38 c54 76 113 101 233 101 126 0
317 -54 477 -135 63 -33 93 -34 140 -6 126 73 357 141 482 141 99 0 146 -14
197 -58 73 -61 74 -69 34 -227 -39 -152 -37 -181 12 -204 36 -16 50 -14 78 12
21 18 32 49 61 170 19 82 35 159 35 170 0 42 -50 129 -105 183 -49 47 -57 61
-65 107 -31 190 -106 344 -219 450 -80 75 -118 62 -181 -62 -51 -103 -107
-266 -123 -358 l-12 -76 -120 -50 c-66 -27 -129 -50 -140 -49 -11 0 -74 22
-139 49 l-120 50 -13 78 c-17 101 -64 236 -119 347 -72 144 -106 152 -206 48z
m117 -220 c30 -77 55 -165 55 -192 0 -15 -12 -17 -106 -15 l-106 2 6 37 c13
79 96 255 116 243 4 -3 20 -37 35 -75z m1054 -10 c26 -50 52 -124 63 -175 5
-19 -1 -20 -104 -22 -100 -2 -108 0 -108 17 0 24 44 165 71 228 20 45 21 46
36 27 8 -11 27 -45 42 -75z m69 -1582 l3 -98 -641 0 -640 0 0 100 0 100 638
-2 637 -3 3 -97z"/>
</g>
</svg>
