<?xml version="1.0" standalone="no"?>
<!DOCTYPE svg PUBLIC "-//W3C//DTD SVG 20010904//EN"
 "http://www.w3.org/TR/2001/REC-SVG-20010904/DTD/svg10.dtd">
<svg version="1.0" xmlns="http://www.w3.org/2000/svg"
 width="512.000000pt" height="512.000000pt" viewBox="0 0 512.000000 512.000000"
 preserveAspectRatio="xMidYMid meet">

<g transform="translate(0.000000,512.000000) scale(0.100000,-0.100000)"
fill="#000000" stroke="none">
<path d="M1898 5107 c-49 -19 -53 -21 -527 -320 -234 -148 -424 -274 -437
-291 -14 -17 -182 -348 -374 -736 -369 -743 -369 -744 -336 -809 11 -20 110
-81 405 -250 l391 -224 0 -1184 c0 -1303 -3 -1233 62 -1273 33 -20 46 -20
1478 -20 1432 0 1445 0 1478 20 61 37 62 45 62 508 0 409 -1 420 -21 446 -26
33 -79 36 -109 6 -19 -19 -20 -33 -20 -425 l0 -405 -1390 0 -1390 0 0 1650 c0
1637 0 1650 -20 1670 -30 30 -83 27 -109 -6 -20 -26 -21 -37 -21 -420 l0 -393
-322 185 c-178 101 -324 188 -326 192 -1 4 150 316 337 693 l340 684 306 193
c168 106 310 190 315 187 6 -3 10 -14 10 -24 0 -31 108 -234 151 -283 34 -40
46 -48 75 -48 41 0 74 29 74 67 0 15 -17 51 -39 83 -54 77 -109 188 -123 249
-13 57 -13 57 65 101 l37 21 0 -25 c0 -32 43 -150 77 -212 15 -27 63 -86 108
-131 66 -66 98 -90 166 -123 195 -93 387 -93 579 1 67 33 102 59 166 123 44
45 92 103 107 130 34 61 77 180 77 212 0 31 6 30 67 -8 l51 -33 -22 -70 c-41
-130 -92 -212 -196 -315 -80 -81 -109 -103 -190 -143 -135 -67 -199 -82 -355
-82 -143 0 -222 18 -337 76 -82 42 -117 38 -144 -13 -35 -68 38 -125 233 -185
79 -24 105 -26 248 -27 179 -1 249 13 390 78 228 105 413 312 489 544 12 36
21 50 30 45 7 -5 147 -93 310 -198 l298 -190 339 -684 c187 -377 338 -689 337
-693 -2 -4 -148 -91 -326 -192 l-322 -185 0 393 c0 383 -1 394 -21 420 -26 33
-79 36 -109 6 -20 -20 -20 -33 -20 -1145 0 -1112 0 -1125 20 -1145 30 -30 83
-27 109 6 21 26 21 34 21 659 l0 632 388 222 c287 164 393 229 405 250 38 65
39 62 -333 811 -192 388 -360 719 -374 736 -31 39 -875 578 -940 600 -85 29
-163 16 -287 -48 -143 -74 -222 -93 -374 -92 -149 1 -229 22 -396 100 -101 47
-132 57 -188 61 -40 2 -80 -2 -103 -10z m230 -191 c156 -79 345 -121 507 -113
131 7 211 26 323 77 95 45 98 42 52 -56 -120 -251 -420 -352 -678 -226 -81 39
-181 141 -219 222 -31 66 -48 120 -38 120 3 0 27 -11 53 -24z"/>
</g>
</svg>
