<?xml version="1.0" standalone="no"?>
<!DOCTYPE svg PUBLIC "-//W3C//DTD SVG 20010904//EN"
 "http://www.w3.org/TR/2001/REC-SVG-20010904/DTD/svg10.dtd">
<svg version="1.0" xmlns="http://www.w3.org/2000/svg"
 width="512.000000pt" height="512.000000pt" viewBox="0 0 512.000000 512.000000"
 preserveAspectRatio="xMidYMid meet">

<g transform="translate(0.000000,512.000000) scale(0.100000,-0.100000)"
fill="#000000" stroke="none">
<path d="M1625 5015 c-14 -13 -25 -31 -25 -40 0 -9 -77 -937 -171 -2063 -149
-1786 -169 -2050 -157 -2072 26 -48 103 -52 132 -7 11 16 53 492 166 1852 83
1007 153 1840 156 1853 4 19 11 22 54 22 41 0 50 -3 50 -17 1 -10 -68 -982
-152 -2160 l-152 -2143 -80 0 -79 0 7 77 c21 253 21 272 -4 298 -43 46 -121
24 -134 -37 -3 -13 -12 -116 -21 -230 -18 -217 -16 -236 25 -258 12 -6 148
-10 365 -10 346 0 346 0 368 22 19 20 64 220 302 1320 154 714 282 1298 285
1298 3 0 131 -584 285 -1298 238 -1100 283 -1300 302 -1320 22 -22 22 -22 373
-22 l351 0 24 25 c14 13 25 31 25 40 0 9 -90 1095 -200 2415 -110 1320 -200
2406 -200 2415 0 9 -11 27 -25 40 l-24 25 -911 0 -911 0 -24 -25z m295 -215
l0 -80 -91 0 -92 0 7 46 c3 26 6 62 6 80 l0 34 85 0 85 0 0 -80z m320 0 l0
-80 -80 0 -80 0 0 80 0 80 80 0 80 0 0 -80z m480 0 l0 -80 -160 0 -160 0 0 80
0 80 160 0 160 0 0 -80z m320 0 l0 -80 -80 0 -80 0 0 80 0 80 80 0 80 0 0 -80z
m330 46 c0 -18 3 -54 6 -80 l7 -46 -92 0 -91 0 0 80 0 80 85 0 85 0 0 -34z
m-1208 -493 l3 -208 32 -67 c42 -90 100 -150 186 -193 38 -19 76 -35 83 -35
12 0 14 -62 14 -357 l1 -358 -313 -1447 -312 -1448 -83 0 c-72 0 -83 2 -83 18
-1 9 68 981 152 2160 l152 2142 82 0 82 0 4 -207z m318 -63 c0 -148 -2 -270
-5 -270 -19 0 -68 35 -97 70 -51 59 -58 95 -58 294 l0 176 80 0 80 0 0 -270z
m714 -687 c82 -1162 74 -1072 102 -1100 25 -25 69 -30 95 -10 41 31 41 15 -31
1028 -39 536 -70 989 -70 1007 0 32 0 32 50 32 43 0 50 -3 54 -22 5 -23 356
-4249 356 -4280 0 -16 -10 -18 -78 -18 l-78 0 -72 1012 c-56 789 -76 1017 -87
1035 -29 43 -102 43 -130 -1 -14 -21 -9 -112 55 -1003 38 -540 70 -995 70
-1012 l0 -31 -83 0 -83 0 -312 1448 -313 1447 1 713 0 712 243 0 243 0 68
-957z"/>
</g>
</svg>
