<?xml version="1.0" standalone="no"?>
<!DOCTYPE svg PUBLIC "-//W3C//DTD SVG 20010904//EN"
 "http://www.w3.org/TR/2001/REC-SVG-20010904/DTD/svg10.dtd">
<svg version="1.0" xmlns="http://www.w3.org/2000/svg"
 width="512.000000pt" height="512.000000pt" viewBox="0 0 512.000000 512.000000"
 preserveAspectRatio="xMidYMid meet">

<g transform="translate(0.000000,512.000000) scale(0.100000,-0.100000)"
fill="#000000" stroke="none">
<path d="M1884 4798 c-17 -6 -57 -30 -90 -54 -40 -30 -69 -44 -90 -44 -87 0
-202 -78 -244 -166 -13 -26 -32 -102 -44 -176 -14 -88 -26 -134 -36 -139 -8
-5 -62 -30 -120 -57 -58 -27 -133 -70 -166 -95 -113 -83 -357 -383 -357 -437
0 -54 52 -85 107 -64 8 3 34 31 57 62 23 32 65 85 93 120 l50 63 33 -53 c68
-108 120 -286 142 -490 14 -126 14 -466 0 -620 -10 -114 -13 -123 -54 -191
-28 -47 -48 -71 -59 -71 -10 1 -53 24 -98 50 -220 134 -356 303 -408 508 -32
127 -28 154 35 268 30 54 55 108 55 121 0 55 -58 89 -108 63 -22 -11 -49 -56
-119 -193 -273 -533 -408 -1057 -438 -1698 -3 -71 -10 -205 -16 -297 -10 -155
-9 -170 9 -210 10 -24 35 -57 55 -75 l37 -32 0 -98 c0 -111 15 -148 72 -183
31 -18 51 -20 278 -20 227 0 247 2 278 20 57 35 72 72 73 180 l0 95 41 30 c65
48 78 84 105 294 32 259 59 414 98 566 30 119 108 350 124 367 3 4 6 -149 7
-340 1 -341 10 -503 40 -712 20 -137 52 -276 75 -321 23 -46 87 -103 133 -120
l36 -13 0 -91 c0 -108 19 -158 76 -201 l37 -29 977 0 977 0 37 29 c57 43 76
93 76 201 l0 91 36 13 c46 17 110 74 133 120 23 45 55 184 75 321 30 209 39
371 40 712 1 191 4 344 7 340 14 -15 89 -234 118 -343 41 -154 66 -293 100
-556 32 -247 42 -279 109 -328 l41 -30 0 -95 c1 -108 16 -145 73 -180 31 -19
47 -20 290 -18 l256 3 27 25 c46 43 55 72 55 175 l0 96 37 32 c20 18 45 52 56
76 18 41 18 54 8 215 -6 94 -16 254 -21 356 -35 604 -163 1097 -415 1600 -148
296 -342 582 -544 801 -76 83 -167 146 -295 203 -54 25 -102 48 -106 53 -4 4
-15 58 -24 118 -24 161 -40 200 -105 266 -58 58 -123 89 -186 89 -23 0 -48 12
-83 40 -91 73 -60 70 -776 69 -397 -1 -653 -5 -672 -11z m1306 -147 c0 -5 -33
-28 -72 -51 -215 -127 -380 -267 -493 -419 -33 -44 -62 -80 -65 -80 -3 0 -32
36 -65 80 -113 152 -278 292 -492 419 -40 23 -73 46 -73 51 0 5 271 9 630 9
359 0 630 -4 630 -9z m-1409 -105 c46 -14 258 -140 344 -205 85 -64 163 -140
230 -224 36 -44 63 -83 60 -85 -2 -2 -90 44 -196 102 -241 135 -306 158 -459
163 -63 3 -135 0 -159 -5 l-43 -10 7 56 c15 128 45 181 120 207 50 18 44 18
96 1z m1681 -12 c55 -28 80 -80 93 -196 l7 -56 -43 10 c-24 5 -96 8 -159 5
-153 -5 -218 -28 -459 -163 -106 -58 -194 -104 -196 -102 -8 8 122 164 182
218 32 30 85 73 117 97 84 62 316 200 346 206 32 6 78 -2 112 -19z m-1596
-398 c27 -7 78 -26 112 -41 l62 -28 0 -189 c0 -187 0 -189 25 -213 29 -30 64
-32 96 -6 23 18 24 27 29 169 l5 149 63 -34 62 -35 0 -265 0 -266 -202 6
c-201 7 -482 27 -672 50 l-99 12 -23 91 c-34 134 -83 250 -145 340 l-28 41 22
20 c12 11 40 32 62 45 56 35 289 137 349 153 66 18 217 18 282 1z m1665 0
c109 -29 339 -139 433 -207 5 -4 -5 -26 -21 -50 -68 -98 -128 -246 -160 -394
l-9 -40 -95 -12 c-173 -21 -471 -43 -676 -50 l-203 -6 0 266 0 266 64 34 65
34 3 -149 c3 -143 4 -151 27 -169 30 -25 62 -24 94 2 l27 20 2 192 3 192 57
28 c31 16 78 35 105 42 65 18 216 18 284 1z m-883 -1813 l-3 -1548 -85 0 -85
0 -3 1548 -2 1547 90 0 90 0 -2 -1547z m1565 1310 c99 -131 181 -259 271 -420
65 -117 68 -142 36 -269 -52 -205 -188 -374 -408 -508 -45 -26 -88 -49 -98
-50 -11 0 -31 23 -59 70 -40 68 -43 79 -54 186 -14 144 -14 499 0 626 21 200
72 375 142 490 l32 53 23 -28 c13 -15 65 -83 115 -150z m-2743 -353 c139 -19
444 -40 648 -47 l202 -6 0 -405 0 -405 -192 7 c-205 7 -495 28 -668 49 -95 11
-105 14 -103 32 19 196 25 332 22 538 -3 163 -1 247 6 247 5 0 44 -5 85 -10z
m2271 -237 c-3 -206 3 -342 22 -538 2 -18 -8 -21 -103 -32 -173 -21 -463 -42
-667 -49 l-193 -7 0 406 0 407 103 0 c139 0 438 19 637 40 91 9 174 18 185 19
20 1 20 -3 16 -246z m-3242 -272 c82 -194 255 -372 468 -483 45 -24 83 -46 83
-50 0 -4 -13 -40 -29 -80 -44 -112 -89 -253 -121 -379 l-28 -114 -110 2 c-189
3 -357 57 -489 157 -74 56 -72 49 -43 222 39 227 116 506 200 722 18 46 33 82
35 80 1 -2 17 -36 34 -77z m4250 -169 c57 -171 111 -385 141 -556 28 -167 29
-164 -33 -214 -123 -101 -308 -162 -499 -165 l-110 -2 -28 114 c-32 126 -77
267 -121 379 -16 40 -29 76 -29 80 0 4 26 21 57 36 232 114 416 303 504 520
l24 58 22 -51 c12 -28 45 -117 72 -199z m-3114 -297 c200 -18 491 -35 601 -35
l84 0 0 -406 0 -407 -167 7 c-328 13 -794 54 -811 71 -11 11 -15 335 -7 573
l7 225 67 -7 c36 -3 138 -13 226 -21z m2148 -142 c9 -210 9 -526 1 -586 -8
-54 7 -49 -229 -72 -97 -10 -179 -23 -192 -31 -48 -30 -34 -116 22 -130 23 -6
331 21 369 33 18 5 19 1 12 -83 -16 -219 -62 -443 -98 -481 -12 -13 -38 -27
-57 -33 -21 -6 -198 -10 -423 -10 l-388 0 0 270 0 270 83 1 c135 0 218 13 233
34 23 32 17 81 -12 104 -24 19 -35 20 -165 14 l-139 -6 0 405 0 405 188 7
c211 7 411 21 587 40 66 7 138 14 161 15 l41 1 6 -167z m-3440 -553 c114 -54
215 -79 370 -93 127 -11 127 -11 127 -37 -1 -14 -13 -117 -29 -229 -23 -167
-31 -206 -46 -217 -15 -11 -79 -14 -300 -14 -265 0 -283 1 -299 19 -17 18 -17
34 -1 298 8 153 18 297 21 321 l5 42 33 -25 c18 -13 71 -43 119 -65z m4612
-263 c16 -273 15 -290 -1 -308 -16 -18 -34 -19 -301 -19 -259 0 -285 2 -301
18 -14 14 -24 64 -45 227 -15 116 -27 217 -27 225 0 13 24 18 128 27 70 7 163
21 207 32 84 22 242 94 285 129 l25 21 7 -32 c4 -18 14 -162 23 -320z m-3415
9 c202 -20 394 -33 608 -42 l172 -7 0 -268 0 -269 -387 0 c-226 0 -403 4 -424
10 -19 6 -45 20 -57 33 -36 38 -82 262 -98 481 -7 84 -6 88 12 83 10 -3 89
-13 174 -21z m-880 -551 l0 -65 -200 0 -200 0 0 65 0 65 200 0 200 0 0 -65z
m4200 0 l0 -65 -200 0 -200 0 0 65 0 65 200 0 200 0 0 -65z m-1362 -262 l-3
-78 -935 0 -935 0 -3 78 -3 77 941 0 941 0 -3 -77z"/>
</g>
</svg>
